/* XPM */
static char *result[] = {
/* columns rows colors chars-per-pixel */
"60 60 75 1 ",
"  c #E7490E",
". c #E74A0F",
"X c #E74B10",
"o c #E74C11",
"O c #E74C12",
"+ c #E84D13",
"@ c #E84E14",
"# c #E84F15",
"$ c #E84F16",
"% c #E85016",
"& c #E85017",
"* c #E85118",
"= c #E85119",
"- c #E8521A",
"; c #E8521B",
": c #E8531B",
"> c #E95C27",
", c #E95D29",
"< c #EA5E2A",
"1 c #EA6534",
"2 c #EB6837",
"3 c #EC6D3E",
"4 c #EC7447",
"5 c #ED764A",
"6 c #ED784D",
"7 c #ED794D",
"8 c #EE8158",
"9 c #EF855E",
"0 c #EF8760",
"q c #F08C67",
"w c #F08D68",
"e c #F08E6A",
"r c #F08F6B",
"t c #F0926F",
"y c #F19978",
"u c #F3A689",
"i c #F5B299",
"p c #F5B39A",
"a c #F5B59D",
"s c #F6BAA4",
"d c #F6BBA4",
"f c #F6BDA8",
"g c #F7C4B1",
"h c #F7C6B3",
"j c #F8C9B8",
"k c #F8CAB8",
"l c #F8CDBD",
"z c #F9D1C2",
"x c #F9D1C3",
"c c #F9D2C3",
"v c #F9D2C4",
"b c #F9D3C5",
"n c #F9D4C6",
"m c #F9D4C7",
"M c #F9D5C8",
"N c #F9D6C9",
"B c #FAD9CC",
"V c #FAD9CD",
"C c #FADCD1",
"Z c #FBE2D8",
"A c #FBE4DC",
"S c #FCE6DF",
"D c #FCE7DF",
"F c #FCE7E0",
"G c #FCEAE3",
"H c #FCEBE5",
"J c #FDEDE7",
"K c #FDF0EB",
"L c #FDF3EF",
"P c #FEF8F6",
"I c #FEF9F7",
"U c #FEFBFA",
"Y c #FFFCFB",
"T c white",
"R c None",
/* pixels */
"RRRRRRRRRRRRRRRRRRRRRRRRRRRRRRRRRRRRRRRRRRRRRRRRRRRRRRRRRRRR",
"RRRRRRRRRRRRRRRRRRRRRRRRRRRRRRRRRRRRRRRRRRRRRRRRRRRRRRRRRRRR",
"RRRRRRRRRRRRRRRRRRRRRRRRRRRRRRRRRRRRRRRRRRRRRRRRRRRRRRRRRRRR",
"RRRRRRRRRRRRRRRRRRRRRRRRRRRRRRRRRRRRRRRRRRRRRRRRRRRRRRRRRRRR",
"RRRRRRRRRRRRRRRRRRRRRRRRRRRRRRRRRRRRRRRRRRRRRRRRRRRRRRRRRRRR",
"RRRRRRRRRRRRRRRRRRRRRRRRRRRRRRRRRRRRRRRRRRRRRRRRRRRRRRRRRRRR",
"RRRRRRRRRRRRRRRRRRRRRRRRRRRRRRRRRRRRRRRRRRRRRRRRRRRRRRRRRRRR",
"RRRRRRRRRRRRRRRRRRRRRRRRRRRRRRRRRRRRRRRRRRRRRRRRRRRRRRRRRRRR",
"RRRRRRRRRRRRRRRRRRRRRRRRRRRRRRRRRRRRRRRRRRRRRRRRRRRRRRRRRRRR",
"RRRRRRRRRRRRRRRRRRRRRRRRRRRRRRRRRRRRRRRRRRRRRRRRRRRRRRRRRRRR",
"RRRRRRRRRRRRRRRRRRRRRRRRRRRRRRRRRRRRRRRRRRRRRRRRRRRRRRRRRRRR",
"RRRRRRRRRRRRRRRRRRRRRRRRRRRRRRRRRRRRRRRRRRRRRRRRRRRRRRRRRRRR",
"RRRRRRRRRRRRRRRRRRRRRRRRRRRRRRRRRRRRRRRRRRRRRRRRRRRRRRRRRRRR",
"RRRRRRRRRRRRRRRRRRRRRRRRRRRRRRRRRRRRRRRRRRRRRRRRRRRRRRRRRRRR",
"RRRRRRRRRRRRRRRRRRRRRRRRRRRRRRRRRRRRRRRRRRRRRRRRRRRRRRRRRRRR",
"RRRRRRRRRRRRRRRRRRRRRRRRRRRRRRRRRRRRRRRRRRRRRRRRRRRRRRRRRRRR",
"RRRRRRRRRRRRRRRRRRRRRRRRRRRRRRRRRRRRRRRRRRRRRRRRRRRRRRRRRRRR",
"RRRRRRRRRRRRRRRRRRRRRRRRRRRRRRRRRRRRRRRRRRRRRRRRRRRRRRRRRRRR",
"RRRRRRRRRRRRRRRRRRRRRRRRRRRRRRRRRRRRRRRRRRRRRRRRRRRRRRRRRRRR",
"RRRRRRRRRRRRRRRRRRRRRRTTTTTTTRRTTTTTTTRRRRRRRRRRRRRRRRRRRRRR",
"RRRRRRRRRRRRRRRRRRRRTTTTTTTTTTTTTTTTTTTTRRRRRRRRRRRRRRRRRRRR",
"RRRRRRRRRRRRRRRRRRRTTIVdippgHTTHgppisCUTTRRRRRRRRRRRRRRRRRRR",
"RRRRRRRRRRRRRRRRRRTTLa4: ..,wAAw,.. ;5hYTTRRRRRRRRRRRRRRRRRR",
"RRRRRRRRRRRRRRRRRRTUf<O$&&&##00##&&&$X3zTTRRRRRRRRRRRRRRRRRR",
"RRRRRRRRRRRRRRRRRTTF9o&&&&&&&&&&&&&&&&+qGTTRRRRRRRRRRRRRRRRR",
"RRRRRRRRRRRRRRRRRTTc>$&&&&&&&&&&&&&&&&$>xTTRRRRRRRRRRRRRRRRR",
"RRRRRRRRRRRRRRRRRTTkO&&&&&&&&&&&&&&&&&&OkTTRRRRRRRRRRRRRRRRR",
"RRRRRRRRRRRRRRRRRTTjo&&&&&&&&&&&&&&&&&&ojTTRRRRRRRRRRRRRRRRR",
"RRRRRRRRRRRRRRRRRTTN1#&&&&&&&&&&&&&&&&#1NTTRRRRRRRRRRRRRRRRR",
"RRRRRRRRRRRRRRRRRTTJt@&&&&&&&&&&&&&&&&#yKTTRRRRRRRRRRRRRRRRR",
"RRRRRRRRRRRRRRRRRRTTl2=%&&&&&&&&&&&&%*6BTTRRRRRRRRRRRRRRRRRR",
"RRRRRRRRRRRRRRRRRRTTTm7*$&&&&&&&&&&$*6MTTTRRRRRRRRRRRRRRRRRR",
"RRRRRRRRRRRRRRRRRRRTTTn7*$&&&&&&&&$*7nTTTRRRRRRRRRRRRRRRRRRR",
"RRRRRRRRRRRRRRRRRRRRTTTb7*$&&&&&&$*7bTTTRRRRRRRRRRRRRRRRRRRR",
"RRRRRRRRRRRRRRRRRRRRRTTTv8:$&&&&$:8vTTTRRRRRRRRRRRRRRRRRRRRR",
"RRRRRRRRRRRRRRRRRRRRRRTTTZq:$&&$:qZTTTRRRRRRRRRRRRRRRRRRRRRR",
"RRRRRRRRRRRRRRRRRRRRRRRTTTDe-$$-eDTTTRRRRRRRRRRRRRRRRRRRRRRR",
"RRRRRRRRRRRRRRRRRRRRRRRRTTTSr&&rSTTTRRRRRRRRRRRRRRRRRRRRRRRR",
"RRRRRRRRRRRRRRRRRRRRRRRRRRTTFuuFTTRRRRRRRRRRRRRRRRRRRRRRRRRR",
"RRRRRRRRRRRRRRRRRRRRRRRRRRRTTPPTTRRRRRRRRRRRRRRRRRRRRRRRRRRR",
"RRRRRRRRRRRRRRRRRRRRRRRRRRRRTTTTRRRRRRRRRRRRRRRRRRRRRRRRRRRR",
"RRRRRRRRRRRRRRRRRRRRRRRRRRRRRRRRRRRRRRRRRRRRRRRRRRRRRRRRRRRR",
"RRRRRRRRRRRRRRRRRRRRRRRRRRRRRRRRRRRRRRRRRRRRRRRRRRRRRRRRRRRR",
"RRRRRRRRRRRRRRRRRRRRRRRRRRRRRRRRRRRRRRRRRRRRRRRRRRRRRRRRRRRR",
"RRRRRRRRRRRRRRRRRRRRRRRRRRRRRRRRRRRRRRRRRRRRRRRRRRRRRRRRRRRR",
"RRRRRRRRRRRRRRRRRRRRRRRRRRRRRRRRRRRRRRRRRRRRRRRRRRRRRRRRRRRR",
"RRRRRRRRRRRRRRRRRRRRRRRRRRRRRRRRRRRRRRRRRRRRRRRRRRRRRRRRRRRR",
"RRRRRRRRRRRRRRRRRRRRRRRRRRRRRRRRRRRRRRRRRRRRRRRRRRRRRRRRRRRR",
"RRRRRRRRRRRRRRRRRRRRRRRRRRRRRRRRRRRRRRRRRRRRRRRRRRRRRRRRRRRR",
"RRRRRRRRRRRRRRRRRRRRRRRRRRRRRRRRRRRRRRRRRRRRRRRRRRRRRRRRRRRR",
"RRRRRRRRRRRRRRRRRRRRRRRRRRRRRRRRRRRRRRRRRRRRRRRRRRRRRRRRRRRR",
"RRRRRRRRRRRRRRRRRRRRRRRRRRRRRRRRRRRRRRRRRRRRRRRRRRRRRRRRRRRR",
"RRRRRRRRRRRRRRRRRRRRRRRRRRRRRRRRRRRRRRRRRRRRRRRRRRRRRRRRRRRR",
"RRRRRRRRRRRRRRRRRRRRRRRRRRRRRRRRRRRRRRRRRRRRRRRRRRRRRRRRRRRR",
"RRRRRRRRRRRRRRRRRRRRRRRRRRRRRRRRRRRRRRRRRRRRRRRRRRRRRRRRRRRR",
"RRRRRRRRRRRRRRRRRRRRRRRRRRRRRRRRRRRRRRRRRRRRRRRRRRRRRRRRRRRR",
"RRRRRRRRRRRRRRRRRRRRRRRRRRRRRRRRRRRRRRRRRRRRRRRRRRRRRRRRRRRR",
"RRRRRRRRRRRRRRRRRRRRRRRRRRRRRRRRRRRRRRRRRRRRRRRRRRRRRRRRRRRR",
"RRRRRRRRRRRRRRRRRRRRRRRRRRRRRRRRRRRRRRRRRRRRRRRRRRRRRRRRRRRR",
"RRRRRRRRRRRRRRRRRRRRRRRRRRRRRRRRRRRRRRRRRRRRRRRRRRRRRRRRRRRR"
};
