/* XPM */
static char *result[] = {
/* columns rows colors chars-per-pixel */
"60 60 54 1 ",
"  c #E76611",
". c #E86712",
"X c #E86A17",
"o c #E86C1B",
"O c #E96F20",
"+ c #E97223",
"@ c #EA7629",
"# c #EA792E",
"$ c #EB7D35",
"% c #EB7F38",
"& c #EB823C",
"* c #EC8642",
"= c #EC8846",
"- c #ED8C4C",
"; c #EE8F51",
": c #EE9255",
"> c #EF965A",
", c #EF985E",
"< c #EF9A62",
"1 c #F09C66",
"2 c #F09E69",
"3 c #F0A26E",
"4 c #F1A574",
"5 c #F1A877",
"6 c #F2AA7A",
"7 c #F2AE82",
"8 c #F3B186",
"9 c #F3B48B",
"0 c #F4B790",
"q c #F4BA93",
"w c #F5BE9A",
"e c #F5C19E",
"r c #F6C3A2",
"t c #F6C7A9",
"y c #F7CAAC",
"u c #F7CEB2",
"i c #F8CFB5",
"p c #F7D0B6",
"a c #F8D1B7",
"s c #F8D4BC",
"d c #F9D7C1",
"f c #F9D9C5",
"g c #FADECC",
"h c #FAE0CE",
"j c #FAE3D4",
"k c #FBE7D9",
"l c #FBE9DD",
"z c #FCEDE3",
"x c #FDF0E7",
"c c #FDF3EC",
"v c #FEF6F1",
"b c #FEF9F5",
"n c #FFFFFF",
"m c None",
/* pixels */
"mmmmmmmmmmmmmmmmmmmmmmmmm,,,,,,,,,,mmmmmmmmmmmmmmmmmmmmmmmmm",
"mmmmmmmmmmmmmmmmmmmmm,,>::--------::>,,mmmmmmmmmmmmmmmmmmmmm",
"mmmmmmmmmmmmmmmmmm,,:-*%#@OOO+++O++$&&-:,,mmmmmmmmmmmmmmmmmm",
"mmmmmmmmmmmmmmmm,>-&@+XXXXXXXXXXXXXX.X+@&->,mmmmmmmmmmmmmmmm",
"mmmmmmmmmmmmmm>:=$OXXXXXXXXXXXXXXXXXXXX.X+#=>>mmmmmmmmmmmmmm",
"mmmmmmmmmmmmm>-$oXXXXXXXXXXXXXXXXXXXXXXXXXoo#->mmmmmmmmmmmmm",
"mmmmmmmmmmm>:&oXXXXXXXX...     X.XXXXXXXXXXXoO&:>mmmmmmmmmmm",
"mmmmmmmmmm>-#oXXXXX X+$*->>>>>>:*$+X.XXXXXXXXXX#->mmmmmmmmmm",
"mmmmmmmmm>=+XXXX X%,7rslvnnnnnnbksr5-o.XXXXXXXXX+=>mmmmmmmmm",
"mmmmmmmm>&OXXXX@>wdcnnnnnnnnnnnnnnnbkt2@XXXXXXXXXO&>mmmmmmmm",
"mmmmmmm>*OXXX+<aznnnnnnnnnnnnnnnnnnnnncf2OXXXXXXXXO=>mmmmmmm",
"mmmmmm>=+XXO-ucnnnnnnnbbvccccccvbbnnnnnnca-oXXXXXXX+->mmmmmm",
"mmmmmm-+XX#9znnnnnnbzfw5;$@@@@#=30gcnnnnnnj<oXXXXXXo@-mmmmmm",
"mmmmm:@XX=dbnnnnncf0-ooXXXXXXXXXXo+,tknnnnnz5+XXXXXXX@:mmmmm",
"mmmm:%Xo>hnnnnnbf3#XXXXXXXXXXXXXXXXXX-wznnnnc5oXXXXXXX&:mmmm",
"mmmm*oo1lnnnnnx9&XXXXXXXXXXXXXXXXXXXX.o<hnnnnz2oXXXXXXo&mmmm",
"mmm-+X-jnnnnnj1O.XXXXXXXXXXXXXXXXXXXXXXX-ubnnnk;oXXXXX.@-mmm",
"mmm%o*jnnnnnj-XXXXXXXXXoXXoXXXXXXXXXXXXXX$dnnnnf$XXXXXXo%mmm",
"mm*+%snnnnnj-XXoXXXXXXXXXXXXXXXXXXXXXXXXXX*gnnnbeoXXXXXX+=mm",
"mm$$abnnnnz>XXXXXXXXXXXXXXXXXXoXXXXXXXXXXXX>znnnc>XXXXXXX&mm",
"mm%qbnnnnb8oXXXXXXXXXXXoXXX.XX..XXXXXXXXXXXo5vnnna+XXXXXX+=m",
"m*5vnnnnnf&XXXXXXXXXXXXXXX+->:>;$oXXoXXXXXXX@ynnnz<.oXXXXX&m",
"m5znnnnnn6XXXXXXXXXXXoXo>rfkzzzlgt2+XXXXXXXX.>znnneoXXXXXX#m",
"mjnnnnnnf%.XXoXXXXoXXo;acbnnnnnnnncg,oXXXXXXXounnnj*.XXXXX+m",
"mnnnnnnb7XXXXXXXXXXX+9cnnnnnnnnnnnnnc6ooXXXXX 4cnnb2 XXXXXX&",
"nnnnnnnk*XXXXXXXXXXo8vnnnnnvzzzcnnnnnz<XXXXXXX$knnn9oXXXXXX#",
"nnnnnnnuXXXXXXXXXXO5xnnnnzt5>::2qlnnnng&XXXXXXounnny@XXXXXX@",
"nnnnnnb7XXXXXXXXXX:znnnny:+ .X..o:sbnnn0+XXXXXX7bnnj*XXXXXX@",
"nnnnnnz-XXXXXoXXX#fnnnb0$XXXXXXXXX%snnnk*XXXXXo>vnnz=.XXXXoo",
"nnnnnnl@XoXXXXXXo5bnnny#.XXXXXXXXX.-cnnn3XXXXXX&cnnn>.XXXXXX",
"nnnnnnloXXXXXXXXofnnnj=.XXoXXXXXXXX+unnnr+XXXXX@vnnn>.XXXXXX",
"nnnnnngoXXXXXXXX*znnn7XXXXXXXXXXXXXo5nnnf@XXXXX@cnnn>.XXXXXX",
"nnnnnnyoXXXXXXXX3vnnz> XXXXXXXXXXXXo2nnnj$XXXXX@cnnn> XXXXXX",
"nnnnnngoXXXXXXXX9bnns%.XXXXXXXXXXXXo4bnnj$XXXXX&vnnn>.XXXXXX",
"nnnnnnkXXXXXXXXXqnnna@XXXXXoXXXXXXXOqnnns@XXXXX;vnnz-.XXXXXX",
"nnnnnnl$XXXXXXX.qbnna@XXXo=4%XXXXXX*lnnnq+XXXXo6bnnj&.XXXXXX",
"mnnnnnz;XXXXXXXXqbnns#XXX$unr$X..o*snnnn2XXXXXosnnna#XXXXXXm",
"mnnnnnv5XXXXXXXX5vnng* XX$snnd<*-5knnnns%.XXXX&znnn0oXoXXXXm",
"mnnnnnnyXXXXXXXX>cnnc> X.+rnnnbzxnnnnnc<XXXXXX9bnnv2 XXXXXXm",
"mnnnnnnh$XXXXXXX%znnn8oXXX2vnnnnnnnnnz3+XXXXX-knnnd%XXXXXoXm",
"mmnnnnnv4.XXXXXXounnnd&XXX+ebnnnnnnbg>oXXXXX#unnnb8XXXXXXXmm",
"mmnnnnnnu@XXXXXXX3bnnb6oXXX&ezcvbvs3$oXXXXX+8bnnng%XXXXXXXmm",
"mmmnnnnnz>.XXXXXX@gnnnc>XXXXO@*::&+o XXXX.@9vnnnv5XXXXXXXmmm",
"mmmnnnnnnw+.XXXXXX1vnnnk,oXXXXXXXXXXXXXXX%rbnnnny+XXXXXXXmmm",
"mmmmnnnnnc>XXXXoXX@rnnnnc4OXXXXoXXXXXXXX;unnnnns&XXXXXXXmmmm",
"mmmmnnnnnnu@XXXXXX %snnnnce*XXXXXXXXXX%7knnnnns=XXXXXXXXmmmm",
"mmmmmnnnnnb8OXXXXXoX&ubnnnnjw:@oooo%2rjbnnnnnt&XXXXXXXXmmmmm",
"mmmmmnnnnnnx:XXXXXXXX#tbnnnnbzlklkjzcbnnnnnc0@.XXXXXXoXmmmmm",
"mmmmmmnnnnnng%XXXXXXXX@9znnnnnnnnnnnnnnnnbf<oXXXXXXXXXmmmmmm",
"mmmmmmmnnnnnnu@XXXXXXXXO>scnnnnnnnnnnnncs7@XXXXXXXXXXmmmmmmm",
"mmmmmmmmnnnnnb0+XXXXXXXXX@2tjcnnnnnbzfr<@.XXXXoXXoXXmmmmmmmm",
"mmmmmmmmmnnnnnc5oXXXXXXXXX +*<555554:%o.XXXXXXXXXXXmmmmmmmmm",
"mmmmmmmmmmnnnnnz<oXXXXXXXXXXXX      ..XXXXoXXXXXXXmmmmmmmmmm",
"mmmmmmmmmmmnnnnnz>oXXXXXXXXXXXXXXXXXXXXXXXXXXXXXXmmmmmmmmmmm",
"mmmmmmmmmmmmmnnnnz>oXXXXXXXXXXXXXXXXXXXXXXXXXoXXmmmmmmmmmmmm",
"mmmmmmmmmmmmmmnnnnz>ooXXXXXXXXXXXXXXoXXXXXXXXXmmmmmmmmmmmmmm",
"mmmmmmmmmmmmmmmnnnnk:XXXXXXXXoXXXXXXXXXXXXXXmmmmmmmmmmmmmmmm",
"mmmmmmmmmmmmmmmmmmnnh:XXXXXXXXXXXXXXXXoXXXmmmmmmmmmmmmmmmmmm",
"mmmmmmmmmmmmmmmmmmmmnk>oXXXXXXXXXXXoXXXXmmmmmmmmmmmmmmmmmmmm",
"mmmmmmmmmmmmmmmmmmmmmmm+XXXXXXXXXXXXmmmmmmmmmmmmmmmmmmmmmmmm"
};
