/* XPM */
static char *result[] = {
/* columns rows colors chars-per-pixel */
"60 60 103 2 ",
"   c #353E12",
".  c #3A4314",
"X  c #414B18",
"o  c #46511B",
"O  c #4D581E",
"+  c #576324",
"@  c #5A6726",
"#  c #616F2A",
"$  c #66742D",
"%  c #6D7D31",
"&  c #7C6657",
"*  c #7B6D56",
"=  c #71675B",
"-  c #5E6063",
";  c #616262",
":  c #646361",
">  c #BC643C",
",  c #CC6535",
"<  c #E4662A",
"1  c #EB6628",
"2  c #F56723",
"3  c #F86722",
"4  c #9B6349",
"5  c #8B744F",
"6  c #91784C",
"7  c #997B48",
"8  c #836553",
"9  c #8B6350",
"0  c #867251",
"q  c #A46346",
"w  c #AE6341",
"e  c #778837",
"r  c #85973E",
"t  c #B78A3A",
"y  c #BB8B38",
"u  c #BEB43F",
"i  c #DD8C14",
"p  c #E59115",
"a  c #E89315",
"s  c #E99415",
"d  c #EB9615",
"f  c #E99416",
"g  c #EA9416",
"h  c #EC9716",
"j  c #ED9816",
"k  c #EE9916",
"l  c #EF9916",
"z  c #F09B16",
"x  c #F29C16",
"c  c #F39D16",
"v  c #F39E17",
"b  c #F6A118",
"n  c #F7A218",
"m  c #F5A61E",
"M  c #F8A318",
"N  c #F9A418",
"B  c #FBA719",
"V  c #FCA719",
"C  c #F7AD1F",
"Z  c #FDA918",
"A  c #FCA819",
"S  c #FDA919",
"D  c #FEAA19",
"F  c #FFAA19",
"G  c #FFAB19",
"H  c #FDAA1A",
"J  c #FFAB1A",
"K  c #FFAC19",
"L  c #FAA91C",
"P  c #FBAC1C",
"I  c #DC9B2A",
"U  c #C38F35",
"Y  c #C89133",
"T  c #C89233",
"R  c #E69F25",
"E  c #DFAF2C",
"W  c #CAB53B",
"Q  c #D3B132",
"!  c #D6B636",
"~  c #ECA223",
"^  c #F0A421",
"/  c #F0AF23",
"(  c #E1B32F",
")  c #E9B028",
"_  c #AB8440",
"`  c #8FA143",
"'  c #99AD49",
"]  c #9BAF4A",
"[  c #A1B64E",
"{  c #A8B74B",
"}  c #A4B94F",
"|  c #B1B546",
" . c #B3B746",
".. c #BCBE48",
"X. c #A7BD51",
"o. c #AABF52",
"O. c #C6BB41",
"+. c #B3C04F",
"@. c #ABC253",
"#. c #ABC255",
"$. c #ACC254",
"%. c #ADC354",
"&. c None",
/* pixels */
"&.&.&.&.&.&.&.&.&.&.&.&.&.&.&.&.&.&.&.&.&.&.&.&.&.&.&.&.&.&.&.&.&.&.&.&.&.&.&.&.&.&.&.&.&.&.&.&.&.&.&.&.&.&.&.&.&.&.&.&.",
"&.&.&.&.&.&.&.&.&.&.&.&.&.&.&.&.&.&.&.&.&.&.&.&.&.&.&.&.&.&.&.&.&.&.&.&.&.&.&.&.&.&.&.&.&.&.&.&.&.&.&.&.&.&.&.&.&.&.&.&.",
"&.&.&.&.&.&.&.&.&.&.&.&.&.&.&.&.&.&.&.&.&.&.&.&.&.&.&.&.&.&.&.&.&.&.&.&.&.&.&.&.&.&.&.&.&.&.&.&.&.&.&.&.&.&.&.&.&.&.&.&.",
"&.&.&.&.&.&.&.&.&.&.&.&.&.&.&.&.&.&.&.&.&.&.&.&.&.&.&.&.&.&.&.&.&.&.&.&.&.&.&.&.&.&.&.&.&.&.&.&.&.&.&.&.&.&.&.&.&.&.&.&.",
"&.&.&.&.&.&.&.&.&.&.&.&.&.&.&.&.&.&.&.&.&.&.&.&.&.&.&.&.&.&.&.&.&.&.&.&.&.&.&.&.&.&.&.&.&.&.&.&.&.&.&.&.&.&.&.&.&.&.&.&.",
"&.&.&.&.&.&.&.&.&.&.&.&.&.&.&.&.&.&.&.&.&.&.&.&.&.&.&.&.&.&.&.&.&.&.&.&.&.&.&.&.&.&.&.&.&.&.&.&.&.&.&.&.&.&.&.&.&.&.&.&.",
"&.&.&.&.&.&.&.&.&.&.&.&.&.&.&.&.&.&.&.&.&.&.&.&.&.&.&.&.&.&.&.&.&.&.&.&.&.&.&.&.&.&.&.&.&.&.&.&.&.&.&.&.&.&.&.&.&.&.&.&.",
"&.&.&.&.&.&.&.&.&.&.&.&.&.&.&.&.&.&.&.&.&.&.&.&.&.&.&.&.&.&.&.&.&.&.&.&.&.&.&.&.&.&.&.&.&.&.&.&.&.&.&.&.&.&.&.&.&.&.&.&.",
"&.&.&.&.&.&.&.&.&.&.&.&.&.&.&.&.&.&.&.&.&.&.&.&.&.&.&.&.&.&.&.&.&.&.&.&.&.&.&.&.&.&.&.&.&.&.&.&.&.&.&.&.&.&.&.&.&.&.&.&.",
"&.&.&.&.&.&.&.&.&.&.&.&.&.&.&.&.&.&.&.&.&.&.&.&.&.&.&.&.&.&.&.&.&.&.&.&.&.&.&.&.&.&.&.&.&.&.&.&.&.&.&.&.&.&.&.&.&.&.&.&.",
"&.&.&.&.&.&.&.&.&.&.&.&.&.&.&.&.&.&.&.&.&.&.&.&.&.&.&.&.&.&.&.&.&.&.&.&.&.&.&.&.&.&.&.&.&.&.&.&.&.&.&.&.&.&.&.&.&.&.&.&.",
"&.&.&.&.&.&.&.&.&.&.&.&.&.&.&.&.&.&.&.&.&.&.&.&.&.&.&.&.&.&.&.&.&.&.&.&.&.&.&.&.&.&.&.&.&.&.&.&.&.&.&.&.&.&.&.&.&.&.&.&.",
"&.&.&.&.&.&.&.&.&.&.&.&.&.&.&.&.&.&.&.&.&.&.&.&.&.&.&.&.&.&.&.&.&.&.&.&.&.&.&.&.&.&.&.&.&.&.&.&.&.&.&.&.&.&.&.&.&.&.&.&.",
"&.&.&.&.&.&.&.&.&.&.&.&.&.&.&.&.&.&.&.&.&.&.&.&.&.&.&.&.&.&.&.&.&.&.&.&.&.&.&.&.&.&.&.&.&.&.&.&.&.&.&.&.&.&.&.&.&.&.&.&.",
"&.&.&.&.&.&.&.&.&.&.&.&.&.&.&.&.&.&.&.&.&.&.&.&.&.&.&.&.&.&.&.Z D F S G J S G G G S Z &.&.&.&.&.&.&.&.&.&.&.&.&.&.&.&.&.",
"&.&.&.&.&.&.&.&.&.&.&.&.&.&.&.&.&.&.Z Z D A G J G G G G G G J J J J J J J J J J J J J &.&.&.&.&.&.&.&.&.&.&.&.&.&.&.&.&.",
"&.&.&.&.&.&.&.&.&.&.&.&.&.f a f f z V J J J H P C C C / / / ) E E Q Q W W u u u u E J S &.&.&.&.&.&.&.&.&.&.&.&.&.&.&.&.",
"&.&.&.&.&.&.&.&.&.&.&.&.s f f f h V J J ) Q W W u u  .| { { { } } } } [ [ [ [ [ [ | C G &.&.&.&.&.S G G G &.&.&.&.&.&.&.",
"&.&.&.&.&.&.&.&.&.&.&.f f f f f v J J ) | [ [ [ [ [ } } } } } } } } X.X.X.X.o.o.X. ./ G &.&.&.Z G J J J J D &.&.&.&.&.&.",
"&.&.&.&.&.&.&.&.&.&.&.f f f f f b J J E { X.X.X.X.o.o.o.o.o.@.@.$.$.$.$.$.$.$.$.#.+./ J &.&.&.G J J J J J J G &.&.&.&.&.",
"&.&.&.&.&.&.&.&.&.&.&.f f f f f b J J E o.@.$.$.$.$.%.$.$.$.$.$.$.$.$.$.$.$.$.%.%.+./ J &.&.Z J J J J J J J S &.&.&.&.&.",
"&.&.&.&.&.&.&.&.&.&.&.f f f f f v J J ) +.$.$.$.%.%.o.o.$.$.$.$.$.$.$.%.[ $ $ e [ +.) J Z &.D J J J J J J J G &.&.&.&.&.",
"&.&.&.&.&.&.&.&.&.&.&.h f f f f v J J / +.$.$.$.] e # r %.$.$.$.$.$.$.%.] # $ $ ` +.) J G &.&.J J J J J J J J &.&.&.&.&.",
"&.&.&.&.&.&.&.&.&.&.&.f f f f f z H J C +.$.%.} % # $ r @.$.$.$.$.$.$.$.@.[ ' ] X.%.( J F &.&.G J J J J J J F &.&.&.&.&.",
"&.&.&.&.&.&.&.&.&.&.&.d f f f f h H J C ..@.$.o.] [ ` ' @.$.$.$.$.$.$.$.X.% O + ` %.( J J &.&.&.G J J J J H &.&.&.&.&.&.",
"&.&.&.&.&.&.&.&.&.&.&.s f f f f h H J C ..@.$.%.[ @ o O ` %.$.$.$.$.$.%.' X % O $ %.! J D &.&.&.S V V V V n &.&.&.&.&.&.",
"&.&.&.&.&.&.&.&.&.&.&.k f f f f h V J P O.@.$.%.r O r @ % $.$.$.$.%.%.%.[ e } r r #.! J J &.&.&.M b b N N S &.&.&.&.&.&.",
"&.&.&.&.&.&.&.&.&.&.&.&.f f f f h V J P O.#.$.$.[ r } ` ` @.o.X.} ] ] ] } @.$.$.$.#.W H G &.&.&.n b b N M &.&.&.&.&.&.&.",
"&.&.&.&.&.&.&.&.&.&.&.&.g f f f h N J H W #.$.$.$.%.$.%.%.` + O O o o o % o.$.$.$.#.O.P J &.&.&.v b b b S &.&.&.&.&.&.&.",
"&.&.&.&.&.&.&.&.&.&.&.&.g f f f h N J J ! #.$.$.$.$.$.$.%.` X         . e $.$.$.$.#.O.C G &.&.h v b b n &.&.&.&.&.&.&.&.",
"&.&.&.&.&.&.&.&.&.&.&.&.g f f f f b J J ! #.$.$.$.$.$.$.$.o.e X     . $ } %.$.$.$.@...C G &.k z v v b Z &.&.&.&.&.&.&.&.",
"&.&.&.&.&.&.&.&.&.&.&.&.a f f f f b J J ( #.$.$.$.$.$.$.$.%.X.` % % r } %.$.$.$.$.#...C J S x v v v c &.&.&.&.&.&.&.&.&.",
"&.&.&.&.&.&.&.&.&.&.&.&.a f f f f v J J ( $.$.$.$.$.$.$.$.$.$.%.@.@.%.%.$.#.#.#.#.#...C J b z z v c &.&.&.&.&.&.&.&.&.&.",
"&.&.&.&.&.&.&.&.&.&.&.&.f f f f f v J J ) +.#.$.$.$.$.@.@.#.#.#.#.#.$.+.+.+.......O.( J J b z x s &.&.&.&.&.&.&.&.&.&.&.",
"&.&.&.&.&.&.&.&.&.&.&.&.f f f f f v H J C O.+.+.+.+.+.....O.W ! ! ( ( ) ) / / C C J J J J M k &.&.&.&.&.&.&.&.&.&.&.&.&.",
"&.&.&.&.&.&.&.&.&.&.&.&.f f f f f z H J J C / ) / C C P P P P J J J J m ^ m J J J J J J J F &.&.&.&.&.&.&.&.&.&.&.&.&.&.",
"&.&.&.&.&.&.&.&.&.&.&.&.d f f f f z H J J J J J H m ~ m J J J J J H Y 5 0 5 U L J J J J J F &.&.&.&.&.&.&.&.&.&.&.&.&.&.",
"&.&.&.&.&.&.&.&.&.&.&.&.h f f f f h V J J J J L y 6 * t J J J J K I * w > w & T K K K J J S &.&.&.&.&.&.&.&.&.&.&.&.&.&.",
"&.&.&.&.&.&.&.&.&.k l x h h f f f h V J J J J L 7 - - 7 L K K J J _ 4 2 3 2 q 0 y U R J J G &.&.&.&.&.&.&.&.&.&.&.&.&.&.",
"&.&.&.&.&.&.&.&.d z z z g p i p f h V J J J K K _ ; ; * t _ t m J _ q 2 3 2 w = 8 8 0 I K J &.&.&.&.&.&.&.&.&.&.&.&.&.&.",
"&.&.&.&.&.&.&.D v z z c s i i p f f V J J m Y t 6 : ; : : - * R K U & , < , 9 , 1 1 4 7 L S &.&.&.&.&.&.&.&.&.&.&.&.&.&.",
"&.&.&.&.&.&.&.x v v j &.&.i i p f f N J K R = ; ; ; ; ; ; - = I K m _ 8 8 = 9 2 3 3 > 0 ^ G &.&.&.&.&.&.&.&.&.&.&.&.&.&.",
"&.&.&.&.&.&.A b v v k &.&.a p p f f N J K ^ 0 - ; ; ; ; = 6 7 R K J H I U _ 8 < 3 2 q 5 m G &.&.&.&.&.&.&.&.&.&.&.&.&.&.",
"&.&.&.&.&.&.M b b x &.&.&.s f f f f b J J L _ 0 7 * ; ; 6 m L J J J J K K m 6 8 w q & U J J &.&.&.&.&.&.&.&.&.&.&.&.&.&.",
"&.&.&.&.&.&.N b b n &.&.&.s f f f f b J J J m m H _ ; - 0 L J J J J J J J J ~ _ 0 5 U L J J G &.&.&.&.&.&.&.&.&.&.&.&.&.",
"&.&.&.&.&.F N b b n &.&.&.f f f f f v J J J J J K y : = 7 m J J J J J J J J K H m m b V J J J G G J &.&.&.&.&.&.&.&.&.&.",
"&.&.&.&.&.D N N N M &.&.&.j f f f f z J J J J J J ^ I I ^ J J J J J J J J J J J J N v H J J J H V V B &.&.&.&.&.&.&.&.&.",
"&.&.&.&.&.M V V H V G &.&.d f f f f h V J J J J J K K K K J J J J J J J J J J J J b V J J J H v f f h s &.&.&.&.&.&.&.&.",
"&.&.&.&.&.G H J J J J G &.&.f f f f f z V J J J J J J J J G J G F J D G J D G &.&.A J J J V z f f f f a &.&.&.&.&.&.&.&.",
"&.&.&.&.&.G J J J J J J J &.&.s s s s f l M V J J J &.&.&.&.&.&.&.&.&.&.&.&.&.&.&.D J J N h f f f f f s &.&.&.&.&.&.&.&.",
"&.&.&.&.&.J J J J J J J S &.&.&.&.&.&.&.&.S H J J G &.&.&.&.&.&.&.&.&.&.&.&.&.&.&.D J b h f f f f f h &.&.&.&.&.&.&.&.&.",
"&.&.&.&.&.J J J J J J J J &.&.&.&.&.M v M J J J G &.&.&.&.&.&.&.&.&.&.&.&.&.&.&.&.Z N h f f f f g d &.&.&.&.&.&.&.&.&.&.",
"&.&.&.&.&.&.J J J J J J G &.&.&.&.F N N H J J J J &.&.&.&.&.&.&.&.&.&.&.&.&.&.&.&.&.x f f f f f &.&.&.&.&.&.&.&.&.&.&.&.",
"&.&.&.&.&.&.A J J J J G &.&.&.&.D J H H J J J G &.&.&.&.&.&.&.&.&.&.&.&.&.&.&.&.&.&.d f f f k &.&.&.&.&.&.&.&.&.&.&.&.&.",
"&.&.&.&.&.&.&.&.D F &.&.&.&.&.&.G J J J J J G &.&.&.&.&.&.&.&.&.&.&.&.&.&.&.&.&.&.&.&.&.&.&.&.&.&.&.&.&.&.&.&.&.&.&.&.&.",
"&.&.&.&.&.&.&.&.&.&.&.&.&.&.&.Z J J J J J G &.&.&.&.&.&.&.&.&.&.&.&.&.&.&.&.&.&.&.&.&.&.&.&.&.&.&.&.&.&.&.&.&.&.&.&.&.&.",
"&.&.&.&.&.&.&.&.&.&.&.&.&.&.&.J J J J J J S &.&.&.&.&.&.&.&.&.&.&.&.&.&.&.&.&.&.&.&.&.&.&.&.&.&.&.&.&.&.&.&.&.&.&.&.&.&.",
"&.&.&.&.&.&.&.&.&.&.&.&.&.&.&.G J J J J J Z &.&.&.&.&.&.&.&.&.&.&.&.&.&.&.&.&.&.&.&.&.&.&.&.&.&.&.&.&.&.&.&.&.&.&.&.&.&.",
"&.&.&.&.&.&.&.&.&.&.&.&.&.&.&.G J J J J S &.&.&.&.&.&.&.&.&.&.&.&.&.&.&.&.&.&.&.&.&.&.&.&.&.&.&.&.&.&.&.&.&.&.&.&.&.&.&.",
"&.&.&.&.&.&.&.&.&.&.&.&.&.&.&.J G J F G &.&.&.&.&.&.&.&.&.&.&.&.&.&.&.&.&.&.&.&.&.&.&.&.&.&.&.&.&.&.&.&.&.&.&.&.&.&.&.&."
};
