/* XPM */
static char *result[] = {
/* columns rows colors chars-per-pixel */
"60 60 32 1 ",
"  c #3E455A",
". c #41485D",
"X c #434A5F",
"o c #4A5167",
"O c #575E74",
"+ c #5B6174",
"@ c #676D84",
"# c #6F758E",
"$ c #727890",
"% c #757B93",
"& c #7D839B",
"* c #878D9C",
"= c #848AA1",
"- c #8A90A7",
"; c #8E94AA",
": c #9399B0",
"> c #989EB6",
", c #9DA3BA",
"< c #9FA5BD",
"1 c #A1A7BF",
"2 c #A6ABBF",
"3 c #A9AFC3",
"4 c #B1B6C5",
"5 c #B7BDC6",
"6 c #B9BECC",
"7 c #BCC1D1",
"8 c #C7CCD7",
"9 c #CED3DD",
"0 c #D7DCE3",
"q c #DBE0E7",
"w c #E3E8ED",
"e c None",
/* pixels */
"eeeXXXXXXXXXXXXXXXXXXXXXXXXXXXXXXXXXXXXXXXXXXXXXXXXXXXXXXeee",
"eeeXXXXXXXXXXXXXXXXXXXXXXXXXXXXXXXXXXXXXXXXXXXXXXXXXXXXXXeee",
"eeXXXX................................................XXXXee",
"XXXXX..                                              ..XXXXX",
"XXXXXXXXXXXXXXXXXXXXXXXXXXXXXXXXXXXXXXXXXXXXXXXXXXXXXXXXXXXX",
"XXX.XXoO++++++++++++++++++++++++++++++++++++++++++++OoXX.XXX",
"XX..Xo+%******************************************-*%@oX..XX",
"XX. XO%>46655555555555555555555555555555555555555665>%OX .XX",
"XX. X+*49qq000000000000000000000000000000000000000083&OX .XX",
"XX. X+*6qwwwwwwwwwwwwwwwwwwwwwwwwwwwwwwwwwwwwwwwwq97,%OX .XX",
"XX. X+*6qwwwqwwwwwwwwwwwwwwwwwwwwwwwwwwwwwwwwwwwq95,=@oX..XX",
"XX. X+*50wwqqq0q0q0qq0qq0qq0qq0qq0qq0qq0qq0qqqqq96>&@OoX..XX",
"XX. X+*50wqq00999999999999999999999999999999999872-%@OoX..XX",
"XX. X+*50wwq087777777677677677677677777777776642,;&$@OoX..XX",
"XX. X+*50wwq9743233333333333333333333333333331>-=&%$@OoX..XX",
"XX. X+*50wwq973<>>>>,<<<<<<<<<<<<<<,,>>>>>>,<>-&$$$#@OoX..XX",
"XX. X+*50wwq972>;--;:,,<,,,,,,,,,<,>:;----;>>>-&##$#@OoX..XX",
"XX. X+*50wwq973>-=&=:,<<<<,<<,<<<<,,;=&%&&=:>>-&$$$#@OoX..XX",
"XX. X+*50wwq973>;=&=:,<<<<<<<<<<<1<>;&%$$%&;>>;&%$$#@OoX..XX",
"XX. X+*50wwq973,>::>,<11<<<<<<<<<1<>-&#@##&->>;&%$$#@OoX..XX",
"XX. X+*50wwq9631345431<<<1<<<<<<<1<>-&#@@#&->>;&%$$#@OoX..XX",
"XX. X+*50wwq9633689741,,,<<<<<<<<1<>;&%$$%&;>>;&%$$#@OoX..XX",
"XX. X+*50wwq963348873>:::>>,<<<<<<<,>;----:>,>;&%$$#@OoX..XX",
"XX. X+*50wwq96323663>-===-:><<<<<<<1234444331>-&%$$#@OoX..XX",
"XX. X+*50wwq9631132>-&%%%&-><<1<<,<2478998852>-&%$$#@OoX..XX",
"XX. X+*50wwq973<<<,;=%##$%=:<1<<<,<3689009863>-&%$$#@OoX..XX",
"XX. X+*50wwq973<,<>;&$#@#%=:,1<<<<<2478888742>-&%$$#@OoX..XX",
"XX. X+*50wwq973<<<>;&$###%=:,1<<<<<1234444331>-&%$$#@OoX..XX",
"XX. X+*50wwq973<<<,:=&%%&&-><<<<<<<<11111111<>-&%$$#@OoX..XX",
"XX. X+*50wwq973<<<<,>>>:>>>,<<<<<<<<<,,,,,<<<>-&%$$#@OoX..XX",
"XX. X+*50wwq973<,<1346776642<<<<<<<<<<<,,<<<<>-&%$$#@OoX..XX",
"XX. X+*50wwq973<,,14799098631,<<<<<<<<<<<<<1<>-&%$$#@OoX..XX",
"XX. X+*50wwq973,>:>257888753<<<<<<<<<<<<<<<1<>-&%$$#@OoX..XX",
"XX. X+*50wwq973,:--;><22221<<<<<<<<<<<<<<<<1<>-&%$$#@OoX..XX",
"XX. X+*50wwq973>;=&&&=*&*=;><<<<<<<<<<<<<<<1<>-&%$$#@OoX..XX",
"XX. X+*50wwq973>-&$#$$$#$%=:<1<<<<<<<<<<<<<1<>-&%$$#@OoX..XX",
"XX. X+*50wwq973>-&$######%=:,1<<<<<<<<<<<<11<>-&%$$#@OoX..XX",
"XX. X+*50wwq973>-&$######%=:,1<<<<<<<<<<1<<1<>-&%$$#@OoX..XX",
"XX. X+*50wwq973>-&$#$$$#$%=:<1<<<<<<<<<<,,,<<>-&%$$#@OoX..XX",
"XX. X+*50wwq973>-&$#####$%=:,1<<<<<<<<,>:;:>,>;&%$$#@OoX..XX",
"XX. X+*50wwq973>-&#######%=:,1<<<<<<<<,:-==:>>;&%$$#@OoX..XX",
"XX. X+*50wwq973>-&%%$%%$%&-:<<<<<<<<1<,:=&=;>>;&%$$#@OoX..XX",
"XX. X+*50wwq973,:;;------;:,<<1<<<<<<<<>:;;>,>;&%$$#@OoX..XX",
"XX. X+*50wwq97312344444444321<111111111233331>-&%$$#@OoX..XX",
"XX. X+*50wwq96324789999998631<<<<<<<<<1478862>-&%$$#@OoX..XX",
"XX. X+*50q0973<<478998998852>>>>>>>>>>,37874<:=&$$$#@OoX..XX",
"XX. X+*60084<>;:>244444443,:;---------;>232,:-&%$$$#@OoX..XX",
"XX. X+*6083;=&&&=--;;;-;--==&&&&&&&&&&&=---=&&%%$$$#@OoX..XX",
"XX. X+*486>&$$$%%%%%%%%%%%%$%$$%%%%$$$%$%%%%%$$$$$%$@OoX..XX",
"XX. XO%,42-%##$$$#######$##$$$$$$$$$$$$$###$$$$$$%%$@OoX..XX",
"XX..Xo@=;;&%$#$$$$$$$$$$$$$$$$$$$$$$$$$$$$$$$$$$%%%$@OoX..XX",
"XX..Xo+#%%%$####################################$$$#@OoX..XX",
"XXX.XoO+@@@@@@@@@@@@@@@@@@@@@@@@@@@@@@@@@@@@@@@@@@@@+OoX.XXX",
"XXX.XXooOOOOOOOOOOOOOOOOOOOOOOOOOOOOOOOOOOOOOOOOO+OOOoXX.XXX",
"XXXXXXoooooooooooooooooooooooooooooooooooooooooooooooXXXXXXX",
"XXXXXXX.XXXXXXXXXXXXXXXXXXXXXXXXXXXXXXXXXXXXXXXXXXXXXXXXXXXX",
"XXXXXX................................................XXXXXX",
"eeXXXXXX............................................XXXXXXee",
"eeeXXXXXXXXXXXXXXXXXXXXXXXXXXXXXXXXXXXXXXXXXXXXXXXXXXXXXXeee",
"eeeXXXXXXXXXXXXXXXXXXXXXXXXXXXXXXXXXXXXXXXXXXXXXXXXXXXXXXeee"
};
