/* XPM */
static char *result[] = {
/* columns rows colors chars-per-pixel */
"60 60 112 2 ",
"   c #363E12",
".  c #3A4315",
"X  c #3F4917",
"o  c #424C19",
"O  c #46511B",
"+  c #4B561E",
"@  c #4D581F",
"#  c #4F5B20",
"$  c #566224",
"%  c #596626",
"&  c #5F6C29",
"*  c #64722C",
"=  c #68772E",
"-  c #69782F",
";  c #6D7C31",
":  c #6B665E",
">  c #7C6657",
",  c #7C6D56",
"<  c #73635B",
"1  c #72695B",
"2  c #786C58",
"3  c #5E6164",
"4  c #626262",
"5  c #BC643C",
"6  c #C96536",
"7  c #D06633",
"8  c #EE6727",
"9  c #E4662B",
"0  c #E86629",
"q  c #F56723",
"w  c #F96722",
"e  c #9B634A",
"r  c #8B754F",
"t  c #9E7E47",
"y  c #90774D",
"u  c #94794B",
"i  c #987B49",
"p  c #836453",
"a  c #8B6351",
"s  c #846D53",
"d  c #857252",
"f  c #897351",
"g  c #A46346",
"h  c #AD6342",
"j  c #B26440",
"k  c #748435",
"l  c #778837",
"z  c #7D8E3A",
"x  c #84953D",
"c  c #AE853F",
"v  c #B7893B",
"b  c #BA8B39",
"n  c #BEB43F",
"m  c #DD8C15",
"M  c #E08E14",
"N  c #E49115",
"B  c #E99416",
"V  c #EE9917",
"C  c #F29D17",
"Z  c #F29E18",
"A  c #F6A217",
"S  c #F6A21A",
"D  c #FAA519",
"F  c #F7AD1F",
"G  c #FFAB1A",
"H  c #D5982D",
"J  c #DC9B2A",
"K  c #C18E36",
"L  c #C59035",
"P  c #C89233",
"I  c #E59F25",
"U  c #E09D28",
"Y  c #DDAF2D",
"T  c #CDB236",
"R  c #C4B33B",
"E  c #C8B239",
"W  c #CBB93E",
"Q  c #D5B434",
"!  c #DCB432",
"~  c #D3B739",
"^  c #ECA223",
"/  c #EDAE25",
"(  c #E5AF29",
")  c #F0A421",
"_  c #F3AD21",
"`  c #EDB026",
"'  c #E4B22C",
"]  c #EAB129",
"[  c #E0B430",
"{  c #8B9E42",
"}  c #AB8441",
"|  c #8FA144",
" . c #92A545",
".. c #99AD4A",
"X. c #9EB24C",
"o. c #AFB547",
"O. c #A3B74E",
"+. c #ABB649",
"@. c #A4B84F",
"#. c #B2B545",
"$. c #BCB440",
"%. c #BEBD47",
"&. c #B5BE4C",
"*. c #BABE4A",
"=. c #A6BB50",
"-. c #A9BE52",
";. c #C3BB43",
":. c #C8BA40",
">. c #B3C04F",
",. c #ACC254",
"<. c #B2C050",
"1. c None",
/* pixels */
"1.1.1.1.1.1.1.1.1.1.1.1.1.1.1.1.1.1.1.1.1.1.1.1.1.1.1.1.1.1.1.1.1.1.1.1.1.1.1.1.1.1.1.1.1.1.1.1.1.1.1.1.1.1.1.1.1.1.1.1.",
"1.1.1.1.1.1.1.1.1.1.1.1.1.1.1.1.1.1.1.1.1.1.1.1.1.1.1.1.1.1.1.1.1.1.1.1.1.1.1.1.1.1.1.1.1.1.1.1.1.1.1.1.1.1.1.1.1.1.1.1.",
"1.1.1.1.1.1.1.1.1.1.1.1.1.1.1.1.1.1.1.1.1.1.1.1.1.1.1.1.1.1.1.1.1.1.1.1.1.1.1.1.1.1.1.1.1.1.1.1.1.1.1.1.1.1.1.1.1.1.1.1.",
"1.1.1.1.1.1.1.1.1.1.1.1.1.1.1.1.1.1.1.1.1.1.1.1.1.1.1.1.1.1.1.1.1.1.1.1.1.1.1.1.1.1.1.1.1.1.1.1.1.1.1.1.1.1.1.1.1.1.1.1.",
"1.1.1.1.1.1.1.1.1.1.1.1.1.1.1.1.1.1.1.1.1.1.1.1.1.1.1.1.1.1.1.1.1.1.1.1.1.1.1.1.1.1.1.1.1.1.1.1.1.1.1.1.1.1.1.1.1.1.1.1.",
"1.1.1.1.1.1.1.1.1.1.1.1.1.1.1.1.1.1.1.1.1.1.1.1.1.1.1.1.1.1.1.1.1.1.1.1.1.1.1.1.1.1.1.1.1.1.1.1.1.1.1.1.1.1.1.1.1.1.1.1.",
"1.1.1.1.1.1.1.1.1.1.1.1.1.1.1.1.1.1.1.1.1.1.1.1.1.1.1.1.1.1.1.1.1.1.1.1.1.1.1.1.1.1.1.1.1.1.1.1.1.1.1.1.1.1.1.1.1.1.1.1.",
"1.1.1.1.1.1.1.1.1.1.1.1.1.1.1.1.1.1.1.1.1.1.1.1.1.1.1.1.1.1.1.1.1.1.1.1.1.1.1.1.1.1.1.1.1.1.1.1.1.1.1.1.1.1.1.1.1.1.1.1.",
"1.1.1.1.1.1.1.1.1.1.1.1.1.1.1.1.1.1.1.1.1.1.1.1.1.1.1.1.1.1.1.1.1.1.1.1.1.1.1.1.1.1.1.1.1.1.1.1.1.1.1.1.1.1.1.1.1.1.1.1.",
"1.1.1.1.1.1.1.1.1.1.1.1.1.1.1.1.1.1.1.1.1.1.1.1.1.1.1.1.1.1.1.1.1.1.1.1.1.1.1.1.1.1.1.1.1.1.1.1.1.1.1.1.1.1.1.1.1.1.1.1.",
"1.1.1.1.1.1.1.1.1.1.1.1.1.1.1.1.1.1.1.1.1.1.1.1.1.1.1.1.1.1.1.1.1.1.1.1.1.1.1.1.1.1.1.1.1.1.1.1.1.1.1.1.1.1.1.1.1.1.1.1.",
"1.1.1.1.1.1.1.1.1.1.1.1.1.1.1.1.1.1.1.1.1.1.1.1.1.1.1.1.1.1.1.1.1.1.1.1.1.1.1.1.1.1.1.1.1.1.1.1.1.1.1.1.1.1.1.1.1.1.1.1.",
"1.1.1.1.1.1.1.1.1.1.1.1.1.1.1.1.1.1.1.1.1.1.1.1.1.1.1.1.1.1.1.1.1.1.1.1.1.1.1.1.1.1.1.1.1.1.1.1.1.1.1.1.1.1.1.1.1.1.1.1.",
"1.1.1.1.1.1.1.1.1.1.1.1.1.1.1.1.1.1.1.1.1.1.1.1.1.1.1.1.1.1.1.1.1.1.1.1.1.1.1.1.1.1.1.1.1.1.1.1.1.1.1.1.1.1.1.1.1.1.1.1.",
"1.1.1.1.1.1.1.1.1.1.1.1.1.1.1.1.1.1.1.1.1.1.1.1.1.1.1.1.1.1.1.G G G G G G G G G G G G 1.1.1.1.1.1.1.1.1.1.1.1.1.1.1.1.1.",
"1.1.1.1.1.1.1.1.1.1.1.1.1.1.1.1.1.1.C G G G G G G G G G G G G G G G G G G G G G G G G 1.1.1.1.1.1.1.1.1.1.1.1.1.1.1.1.1.",
"1.1.1.1.1.1.1.1.1.1.1.1.1.B B B B C D G G G G D F F F _ / / / Y Y Q Q T E R $.$.n Y G G 1.1.1.1.1.1.1.1.1.1.1.1.1.1.1.1.",
"1.1.1.1.1.1.1.1.1.1.1.1.B B B B V D G G ( T E R n $.#.o.+.+.O.+.O.+.O.O.O.X.X.O.=.o.F G 1.1.1.1.1.G G G G 1.1.1.1.1.1.1.",
"1.1.1.1.1.1.1.1.1.1.1.B B B B B S G G / o.=.O.O.O.O.=.O.@.O.O.@.@.-.@.-.=.-.-.-.,.#./ G 1.1.1.G G G G G G G 1.1.1.1.1.1.",
"1.1.1.1.1.1.1.1.1.1.1.B B B B B S G G Y @.=.=.=.-.-.=.,.,.-.,.,.,.,.,.,.,.,.,.,.,.&._ G 1.1.1.G G G G G G G G 1.1.1.1.1.",
"1.1.1.1.1.1.1.1.1.1.1.B B B B B Z G G ' -.,.,.,.,.,.,.,.,.,.,.,.,.,.,.,.,.,.,.,.,.>._ G 1.1.G G G G G G G G G 1.1.1.1.1.",
"1.1.1.1.1.1.1.1.1.1.1.B B B B B Z G G ] &.,.,.,.,.,.-.,.,.,.,.,.,.,.,.,.X.- * k O.>.] G G 1.G G G G G G G G G 1.1.1.1.1.",
"1.1.1.1.1.1.1.1.1.1.1.B B B B B Z G G _ <.,.,.,...k * x ,.,.,.,.,.,.,.,.X.& * * | >.' G G 1.1.G G G G G G G G 1.1.1.1.1.",
"1.1.1.1.1.1.1.1.1.1.1.B B B B B C G G _ >.,.,.=.- * * x ,.,.,.,.,.,.,.,.,.X...X.=.,.' G G 1.1.G G G G G G G G 1.1.1.1.1.",
"1.1.1.1.1.1.1.1.1.1.1.B B B B B V G G F >.,.,.,.X.X. ...,.,.,.,.,.,.,.,.-.k # $  .,.! G G 1.1.1.G G G G G G 1.1.1.1.1.1.",
"1.1.1.1.1.1.1.1.1.1.1.B B B B B V G G F %.,.,.,.O.% O @ | ,.,.,.,.,.,.,...X ; @ = ,.Q G G 1.1.1.D D G G D G 1.1.1.1.1.1.",
"1.1.1.1.1.1.1.1.1.1.1.B B B B B B G G F ;.,.,.,.x @ x % - ,.,.,.,.,.,.,.X.l O.{ x ,.~ G G 1.1.1.S S A A D D 1.1.1.1.1.1.",
"1.1.1.1.1.1.1.1.1.1.1.1.B B B B V D G G W ,.,.,.O.x @.|  .,.,.@.O.X.X...O.,.,.,.,.,.W G G 1.1.1.A A A A D 1.1.1.1.1.1.1.",
"1.1.1.1.1.1.1.1.1.1.1.1.B B B B B D G G W ,.,.,.,.<.,.,.,.{ % + + O O o ; ,.,.,.,.,.:.G G 1.1.1.Z A A A A 1.1.1.1.1.1.1.",
"1.1.1.1.1.1.1.1.1.1.1.1.B B B B B D G G ~ ,.,.,.,.,.,.,.,. .o         . z ,.,.,.,.,.;.F G 1.1.Z Z Z A A 1.1.1.1.1.1.1.1.",
"1.1.1.1.1.1.1.1.1.1.1.1.B B B B B A G G ! ,.,.,.,.,.,.,.,.,.l X     . ; =.,.,.,.,.,.>.G G 1.C C Z Z S A 1.1.1.1.1.1.1.1.",
"1.1.1.1.1.1.1.1.1.1.1.1.B B B B B S G G [ ,.,.,.,.,.,.,.,.,.,.x k - x =.,.,.,.,.,.<.>._ G Z C C Z A Z 1.1.1.1.1.1.1.1.1.",
"1.1.1.1.1.1.1.1.1.1.1.1.B B B B B Z G G ' ,.,.,.,.,.,.,.,.,.,.,.,.,.,.,.,.,.,.,.,.,.%._ G S C C C C 1.1.1.1.1.1.1.1.1.1.",
"1.1.1.1.1.1.1.1.1.1.1.1.B B B B B Z G G ] &.,.,.,.,.,.,.,.,.,.,.,.,.,.,.>.>.*.%.*.;.' G G A V C C 1.1.1.1.1.1.1.1.1.1.1.",
"1.1.1.1.1.1.1.1.1.1.1.1.B B B B B C G G _ W <.<.<.<.&.%.;.;.:.~ Q ! [ ' ] / ` F _ G G G G A V 1.1.1.1.1.1.1.1.1.1.1.1.1.",
"1.1.1.1.1.1.1.1.1.1.1.1.B B B B B C G G G F ` ` ` _ G _ G _ G G G G G _ ) F G G G G G G G G 1.1.1.1.1.1.1.1.1.1.1.1.1.1.",
"1.1.1.1.1.1.1.1.1.1.1.1.B B B B B V G G G G G G G ) ^ ) G G G G G G L f d r K D G G G G G G 1.1.1.1.1.1.1.1.1.1.1.1.1.1.",
"1.1.1.1.1.1.1.1.1.1.1.1.B B B B B V A G G G G F b i , v G G G G G H > h 5 h > P G G G G G G 1.1.1.1.1.1.1.1.1.1.1.1.1.1.",
"1.1.1.1.1.1.1.1.1.C V V V V B B B V G G G G G G i 3 3 i F G G G G } e q w q g d b L I G G G 1.1.1.1.1.1.1.1.1.1.1.1.1.1.",
"1.1.1.1.1.1.1.1.C C C V B M M M B V A G G G G G } 4 4 2 b } v S G } g q w q h < p > f J G G 1.1.1.1.1.1.1.1.1.1.1.1.1.1.",
"1.1.1.1.1.1.1.Z C C C C M m m M B B G G G ) K b y 4 4 4 4 4 , I G L > 6 9 6 a 6 8 0 e i D G 1.1.1.1.1.1.1.1.1.1.1.1.1.1.",
"1.1.1.1.1.1.1.A C C Z 1.1.m m B B B A G G I 1 3 4 4 4 4 4 4 : J G S } s p < a q w w 5 d ^ G 1.1.1.1.1.1.1.1.1.1.1.1.1.1.",
"1.1.1.1.1.1.A Z C Z Z 1.1.M M B B B A G G S d 3 4 4 4 4 1 u t I G G D J L c p 9 q q g r F G 1.1.1.1.1.1.1.1.1.1.1.1.1.1.",
"1.1.1.1.1.1.A A Z Z 1.1.1.B B B B B S G G F } d i , 4 4 y S F G G G G G G F i p 5 e > K G G 1.1.1.1.1.1.1.1.1.1.1.1.1.1.",
"1.1.1.1.1.1.A A A Z 1.1.1.B B B B B Z G G G S F G } 4 3 d D G G G G G G G G ^ } f f K G G G G 1.1.1.1.1.1.1.1.1.1.1.1.1.",
"1.1.1.1.1.D D A A S 1.1.1.B B B B B C G G G G G G b 4 1 t F G G G G G G G G G G ) S S A G G G G G G 1.1.1.1.1.1.1.1.1.1.",
"1.1.1.1.1.D D Z A A 1.1.1.B B B B B C G G G G G G ) H U ) G G G G G G G G G G G G D C G G G G G D G D 1.1.1.1.1.1.1.1.1.",
"1.1.1.1.1.D G G G G G 1.1.B B B B B V F G G G G G G G G G G G G G G G G G G G G G S G G G G G C B B V B 1.1.1.1.1.1.1.1.",
"1.1.1.1.1.G G G G G G G 1.1.B B B B B C D G G G G G G G G G G G G G G G G G G 1.1.G G G G D V B B B B B 1.1.1.1.1.1.1.1.",
"1.1.1.1.1.G G G G G G G G 1.1.B B B B B V D G G G G 1.1.1.1.1.1.1.1.1.1.1.1.1.1.1.G G G D V B B B B B B 1.1.1.1.1.1.1.1.",
"1.1.1.1.1.G G G G G G G G 1.1.1.1.1.1.1.1.G G G G G 1.1.1.1.1.1.1.1.1.1.1.1.1.1.1.G G A V B B B B B B 1.1.1.1.1.1.1.1.1.",
"1.1.1.1.1.G G G G G G G G 1.1.1.1.1.A S S G G G G 1.1.1.1.1.1.1.1.1.1.1.1.1.1.1.1.1.A V B B B B B B 1.1.1.1.1.1.1.1.1.1.",
"1.1.1.1.1.1.G G G G G G G 1.1.1.1.G D D G G G G G 1.1.1.1.1.1.1.1.1.1.1.1.1.1.1.1.1.C B B B B V 1.1.1.1.1.1.1.1.1.1.1.1.",
"1.1.1.1.1.1.G G G G G G 1.1.1.1.G G G G G G G G 1.1.1.1.1.1.1.1.1.1.1.1.1.1.1.1.1.1.B B B B B 1.1.1.1.1.1.1.1.1.1.1.1.1.",
"1.1.1.1.1.1.1.1.G G 1.1.1.1.1.1.G G G G G G G 1.1.1.1.1.1.1.1.1.1.1.1.1.1.1.1.1.1.1.1.1.1.1.1.1.1.1.1.1.1.1.1.1.1.1.1.1.",
"1.1.1.1.1.1.1.1.1.1.1.1.1.1.1.G G G G G G G 1.1.1.1.1.1.1.1.1.1.1.1.1.1.1.1.1.1.1.1.1.1.1.1.1.1.1.1.1.1.1.1.1.1.1.1.1.1.",
"1.1.1.1.1.1.1.1.1.1.1.1.1.1.1.G G G G G G G 1.1.1.1.1.1.1.1.1.1.1.1.1.1.1.1.1.1.1.1.1.1.1.1.1.1.1.1.1.1.1.1.1.1.1.1.1.1.",
"1.1.1.1.1.1.1.1.1.1.1.1.1.1.1.G G G G G G G 1.1.1.1.1.1.1.1.1.1.1.1.1.1.1.1.1.1.1.1.1.1.1.1.1.1.1.1.1.1.1.1.1.1.1.1.1.1.",
"1.1.1.1.1.1.1.1.1.1.1.1.1.1.1.G G G G G G 1.1.1.1.1.1.1.1.1.1.1.1.1.1.1.1.1.1.1.1.1.1.1.1.1.1.1.1.1.1.1.1.1.1.1.1.1.1.1.",
"1.1.1.1.1.1.1.1.1.1.1.1.1.1.1.G G G G G 1.1.1.1.1.1.1.1.1.1.1.1.1.1.1.1.1.1.1.1.1.1.1.1.1.1.1.1.1.1.1.1.1.1.1.1.1.1.1.1."
};
