/* XPM */
static char *result[] = {
/* columns rows colors chars-per-pixel */
"60 60 29 1 ",
"  c #A5703A",
". c #A5703B",
"X c #A6703B",
"o c #A6713B",
"O c #A7723C",
"+ c #A8723C",
"@ c #A8733C",
"# c #A9733C",
"$ c #AA743D",
"% c #AB753D",
"& c #AC753D",
"* c #AC763E",
"= c #AD763E",
"- c #AE763E",
"; c #B27940",
": c #B27A40",
"> c #B57C41",
", c #B77D42",
"< c #B87E43",
"1 c #B97E43",
"2 c #B97F43",
"3 c #BA7F43",
"4 c #BA8043",
"5 c #BB8043",
"6 c #BB8044",
"7 c #BC8044",
"8 c #BC8144",
"9 c #BC8145",
"0 c None",
/* pixels */
"006666666666666666666666666666666666666666666666666666666600",
"0521<<<<<<<<<<<<<<<<<<<<<<<<<<<<<<<<<<<<<<<<<<<<<<<<<<<<1250",
"4>-$#oooooooooooooooooooooooooooooooooooooooooooooooooo#$->4",
">@oooooooooooooooooooooooooooooooooooooooooooooooooooooooo@>",
"$oooO%=*********=%ooooo$=****************************=%+ooo$",
"oooo%377777777778,oooo.:9777777777777777777777777777773&oooo",
"oooo=766666666666,oooo.;7666666666666666666666666666667=oooo",
"oooo*766666666666,oooo.;7666666666666666666666666666667*oooo",
"oooo*766666666666,oooo.;7666666666666666666666666666667*oooo",
"oooo*766666666666,oooo.;7666666666666666666666666666667*oooo",
"oooo*766666666666,oooo.;7666666666666666666666666666667*oooo",
"oooo*766666666666,oooo.;7666666666666666666666666666667*oooo",
"oooo*766666666666,oooo.;7666666666666666666666666666667*oooo",
"oooo*766666666666,oooo.;7666666666666666666666666666667*oooo",
"oooo*766666666666,oooo.;7666666666666666666666666666667*oooo",
"oooo*766666666666,oooo.;7666666666666666666666666666667*oooo",
"oooo*766666666666,oooo.;7666666666666666666666666666667*oooo",
"oooo*766666666666,oooo.;7666666666666666666666666666667*oooo",
"oooo*766666666666,oooo.;7666666666666666666666666666667*oooo",
"oooo*766666666666,oooo.;7666666666666666666666666666667*oooo",
"oooo*766666666666,oooo.;7666666666666666666666666666667*oooo",
"oooo*766666666666,oooo.;7666666666666666666666666666667*oooo",
"oooo*766666666666,oooo.;7666666666666666666666666666667*oooo",
"oooo*766666666666,oooo.;7666666666666666666666666666667*oooo",
"oooo*766666666666,oooo.;7666666666666666666666666666667*oooo",
"oooo*766666666666,oooo.;7666666666666666666666666666667*oooo",
"oooo*766666666666,oooo.:8666666666666666666666666666667*oooo",
"ooooO$$$$$$$$$$$$#ooooo@$$$$$$$$$$$$$$$$$$$$$$$$$$$$$$$Ooooo",
"oooooooooooooooooooooooooooooooooooooooooooooooooooooooooooo",
"oooooooooooooooooooooooooooooooooooooooooooooooooooooooooooo",
"oooooooooooooooooooooooooooooooooooooooooooooooooooooooooooo",
"oooooooooooooooooooooooooooooooooooooooooooooooooooooooooooo",
"ooooO$$$$$$$$$$$$$$$$$$$$$$$$$$$$$$$@ooooo#$$$$$$$$$$$$Ooooo",
"oooo*7666666666666666666666666666668:.oooo,666666666667*oooo",
"oooo*7666666666666666666666666666667;.oooo,666666666667*oooo",
"oooo*7666666666666666666666666666667;.oooo,666666666667*oooo",
"oooo*7666666666666666666666666666667;.oooo,666666666667*oooo",
"oooo*7666666666666666666666666666667;.oooo,666666666667*oooo",
"oooo*7666666666666666666666666666667;.oooo,666666666667*oooo",
"oooo*7666666666666666666666666666667;.oooo,666666666667*oooo",
"oooo*7666666666666666666666666666667;.oooo,666666666667*oooo",
"oooo*7666666666666666666666666666667;.oooo,666666666667*oooo",
"oooo*7666666666666666666666666666667;.oooo,666666666667*oooo",
"oooo*7666666666666666666666666666667;.oooo,666666666667*oooo",
"oooo*7666666666666666666666666666667;.oooo,666666666667*oooo",
"oooo*7666666666666666666666666666667;.oooo,666666666667*oooo",
"oooo*7666666666666666666666666666667;.oooo,666666666667*oooo",
"oooo*7666666666666666666666666666667;.oooo,666666666667*oooo",
"oooo*7666666666666666666666666666667;.oooo,666666666667*oooo",
"oooo*7666666666666666666666666666667;.oooo,666666666667*oooo",
"oooo*7666666666666666666666666666667;.oooo,666666666667*oooo",
"oooo*7666666666666666666666666666667;.oooo,666666666667*oooo",
"oooo*7666666666666666666666666666667;.oooo,666666666667*oooo",
"oooo*7666666666666666666666666666667;.oooo,666666666667*oooo",
"oooo*6777777777777777777777777777779:.oooo,877777777776*oooo",
"oooo+******************************=$ooooo%=***********+oooo",
" oooooooooooooooooooooooooooooooooooooooooooooooooooooooooo ",
" oooooooooooooooooooooooooooooooooooooooooooooooooooooooooo ",
"0.oooooooooooooooooooooooooooooooooooooooooooooooooooooooo.0",
"00XooooooooooooooooooooooooooooooooooooooooooooooooooooooX00"
};
